<svg viewBox="0 0 237.354 242.484" xmlns="http://www.w3.org/2000/svg" xmlns:xlink="http://www.w3.org/1999/xlink" width="237.354492" height="242.483856" fill="none" customFrame="#000000">
	<path id="Vector" d="M78.1499 88.7162C78.1499 85.7646 89.0463 0 89.0463 0L119.937 76.893L170.807 4.93622L146.295 90.7009L223.522 72.9576L149.922 119.283L206.248 173.497L138.103 145.898L157.175 228.711L112.652 159.706L62.6889 238.567L78.1344 145.898L0 151.818L70.865 119.283L0 63.0852L78.1499 88.7162Z" fill="rgb(188,236,48)" fill-rule="nonzero" transform="matrix(1,9.46475e-08,0.05798,0.998318,0,1.96883)" />
	<path id="Vector" d="M89.0463 0L119.937 76.893L170.807 4.93622L146.295 90.7009L223.522 72.9576L149.922 119.283L206.248 173.497L138.103 145.898L157.175 228.711L112.652 159.706L62.6889 238.567L78.1344 145.898L0 151.818L70.865 119.283L0 63.0852L78.1499 88.7162C78.1499 85.7646 89.0463 0 89.0463 0Z" fill-rule="nonzero" stroke="rgb(32,32,39)" stroke-linecap="round" stroke-width="1" transform="matrix(1,9.46475e-08,0.05798,0.998318,0,1.96883)" />
</svg>
